<?xml version="1.0" encoding="UTF-8" standalone="no"?>
<!-- Created with Inkscape (http://www.inkscape.org/) -->

<svg
   xmlns:dc="http://purl.org/dc/elements/1.1/"
   xmlns:cc="http://creativecommons.org/ns#"
   xmlns:rdf="http://www.w3.org/1999/02/22-rdf-syntax-ns#"
   xmlns:svg="http://www.w3.org/2000/svg"
   xmlns="http://www.w3.org/2000/svg"
   xmlns:sodipodi="http://sodipodi.sourceforge.net/DTD/sodipodi-0.dtd"
   xmlns:inkscape="http://www.inkscape.org/namespaces/inkscape"
   width="240"
   height="240"
   id="svg2"
   version="1.1"
   inkscape:version="0.48.0 r9654"
   sodipodi:docname="footstepsborder.svg"
   inkscape:export-filename="Y:\Richard_Wheeler\Post-New Server\Exoplanet Discovery\FreeRCT\sprites\terrain\groundtiles\textures\footstepsborder.png"
   inkscape:export-xdpi="300"
   inkscape:export-ydpi="300">
  <defs
     id="defs4">
    <inkscape:path-effect
       effect="spiro"
       id="path-effect2994"
       is_visible="true" />
    <inkscape:path-effect
       effect="spiro"
       id="path-effect2990"
       is_visible="true" />
    <inkscape:path-effect
       effect="spiro"
       id="path-effect2994-2"
       is_visible="true" />
    <inkscape:path-effect
       effect="spiro"
       id="path-effect2994-6"
       is_visible="true" />
    <inkscape:path-effect
       effect="spiro"
       id="path-effect2994-8"
       is_visible="true" />
    <inkscape:path-effect
       effect="spiro"
       id="path-effect2994-7"
       is_visible="true" />
    <inkscape:path-effect
       effect="spiro"
       id="path-effect2994-7-4"
       is_visible="true" />
    <inkscape:path-effect
       effect="spiro"
       id="path-effect2994-7-47"
       is_visible="true" />
    <inkscape:path-effect
       effect="spiro"
       id="path-effect2994-7-9"
       is_visible="true" />
    <inkscape:path-effect
       effect="spiro"
       id="path-effect2994-7-9-5"
       is_visible="true" />
    <inkscape:path-effect
       effect="spiro"
       id="path-effect2994-7-4-0"
       is_visible="true" />
    <inkscape:path-effect
       effect="spiro"
       id="path-effect2994-6-6"
       is_visible="true" />
  </defs>
  <sodipodi:namedview
     id="base"
     pagecolor="#ffffff"
     bordercolor="#666666"
     borderopacity="1.0"
     inkscape:pageopacity="0.0"
     inkscape:pageshadow="2"
     inkscape:zoom="2.8"
     inkscape:cx="75.211565"
     inkscape:cy="130.04464"
     inkscape:document-units="px"
     inkscape:current-layer="layer1"
     showgrid="true"
     inkscape:window-width="1680"
     inkscape:window-height="1028"
     inkscape:window-x="1672"
     inkscape:window-y="-8"
     inkscape:window-maximized="1">
    <inkscape:grid
       type="xygrid"
       id="grid2985"
       empspacing="5"
       visible="true"
       enabled="true"
       snapvisiblegridlinesonly="true"
       spacingx="10px"
       spacingy="10px"
       dotted="false" />
  </sodipodi:namedview>
  <metadata
     id="metadata7">
    <rdf:RDF>
      <cc:Work
         rdf:about="">
        <dc:format>image/svg+xml</dc:format>
        <dc:type
           rdf:resource="http://purl.org/dc/dcmitype/StillImage" />
        <dc:title></dc:title>
      </cc:Work>
    </rdf:RDF>
  </metadata>
  <g
     inkscape:label="Layer 1"
     inkscape:groupmode="layer"
     id="layer1"
     transform="translate(0,-812.36218)">
    <path
       id="rect2989"
       transform="translate(0,812.36218)"
       style="fill:#ffffff;fill-opacity:1;fill-rule:evenodd;stroke:none"
       d="m 40,40 160,0 0,160 -160,0 z M 0,0 240,0 240,240 0,240 z"
       inkscape:connector-curvature="0"
       sodipodi:nodetypes="cccccccccc" />
    <path
       id="path2992"
       style="fill:#ffffff;fill-opacity:1;stroke:none"
       inkscape:path-effect="#path-effect2994"
       inkscape:original-d="m 68.75,935.98718 10.5,0 c 0,0 2.25,-8.25 2.25,-12 0,-3.75 0,-9.75 -7.5,-9.75 -7.5,0 -7.5,6 -7.5,9.75 0,3.75 2.25,12 2.25,12 z m -0.75,5.25 12,0 c 0,0 -2.25,8.25 -6,8.25 -3.75,0 -6,-8.25 -6,-8.25 z"
       d="m 68.75,935.98718 10.5,0 c 1.748042,-3.72376 2.530323,-7.89592 2.25,-12 -0.154128,-2.25651 -0.648348,-4.54881 -1.894,-6.43666 -0.622826,-0.94392 -1.430338,-1.77354 -2.392767,-2.36737 -0.96243,-0.59383 -2.082347,-0.94597 -3.213233,-0.94597 -1.130886,0 -2.250803,0.35214 -3.213233,0.94597 -0.962429,0.59383 -1.769941,1.42345 -2.392767,2.36737 -1.245652,1.88785 -1.739872,4.18015 -1.894,6.43666 -0.280323,4.10408 0.501958,8.27624 2.25,12 m -0.75,5.25 12,0 c 0.610159,1.884 0.265332,4.0511 -0.899449,5.65267 -1.16478,1.60158 -3.12021,2.59733 -5.100551,2.59733 -1.980341,0 -3.935771,-0.99575 -5.100551,-2.59733 C 67.734668,945.28828 67.389841,943.12118 68,941.23718"
       inkscape:connector-curvature="0" />
    <path
       id="path2992-4"
       style="fill:#ffffff;fill-opacity:1;stroke:none"
       inkscape:path-effect="#path-effect2994-2"
       inkscape:original-d="m 55.675028,975.7833 10.230222,-2.36486 c 0,0 0.334085,-8.54479 -0.510508,-12.19844 -0.844594,-3.65365 -2.195942,-9.49949 -9.503243,-7.8103 -7.307301,1.68918 -5.955952,7.53502 -5.111359,11.18868 0.844593,3.65364 4.894888,11.18492 4.894888,11.18492 z m 0.451701,5.28403 11.691684,-2.7027 c 0,0 -0.334087,8.54479 -3.987739,9.38938 -3.653651,0.84459 -7.703945,-6.68668 -7.703945,-6.68668 z"
       d="m 55.675028,975.7833 10.230222,-2.36486 c 0.864448,-4.02179 0.686954,-8.26295 -0.510508,-12.19844 -0.658392,-2.16382 -1.656196,-4.28591 -3.295033,-5.8447 -0.819418,-0.77939 -1.793034,-1.40582 -2.86448,-1.76763 -1.071446,-0.36181 -2.241901,-0.45267 -3.34373,-0.19797 -1.10183,0.2547 -2.113662,0.85003 -2.917618,1.64537 -0.803957,0.79533 -1.403871,1.78551 -1.798099,2.84546 -0.788458,2.11989 -0.753697,4.4646 -0.395642,6.69785 0.651219,4.06176 2.353077,7.95054 4.894888,11.18492 m 0.451701,5.28403 11.691684,-2.7027 c 1.018805,1.69817 1.170922,3.88726 0.396782,5.71002 -0.77414,1.82276 -2.455061,3.23334 -4.384521,3.67936 -1.929459,0.44602 -4.058915,-0.0837 -5.554483,-1.38182 -1.495567,-1.29809 -2.31962,-3.33184 -2.149462,-5.30486"
       inkscape:connector-curvature="0" />
    <path
       id="path2992-2"
       style="fill:#ffffff;fill-opacity:1;stroke:none"
       inkscape:path-effect="#path-effect2994-6"
       inkscape:original-d="m 162.70875,1001.7628 -2.94392,-10.07881 c 0,0 -8.54994,0.15332 -12.14953,1.20472 -3.59959,1.0514 -9.35894,2.73364 -7.25614,9.93279 2.1028,7.1993 7.86214,5.517 11.46173,4.4656 3.5996,-1.0514 10.88786,-5.5243 10.88786,-5.5243 z m 5.2497,-0.752 -3.36447,-11.51868 c 0,0 8.54994,-0.15333 9.60134,3.44626 1.0514,3.5996 -6.23687,8.07242 -6.23687,8.07242 z"
       d="m 162.70875,1001.7628 -2.94392,-10.07881 c -4.0645,-0.63389 -8.28866,-0.21503 -12.14953,1.20472 -2.12279,0.78061 -4.18457,1.8977 -5.64745,3.62269 -0.73143,0.86249 -1.30137,1.87021 -1.60155,2.96053 -0.30017,1.09027 -0.3242,2.26407 -0.007,3.34957 0.31706,1.0855 0.96907,2.0618 1.80892,2.8191 0.83985,0.7574 1.8626,1.2999 2.94328,1.6331 2.16138,0.6664 4.5003,0.4981 6.70953,0.013 4.01808,-0.8816 7.80358,-2.8023 10.88786,-5.5243 m 5.2497,-0.752 -3.36447,-11.51868 c 1.63736,-1.11391 3.81422,-1.39051 5.67813,-0.72149 1.86391,0.66902 3.36798,2.26684 3.92321,4.16775 0.55523,1.90091 0.14767,4.0571 -1.06309,5.6242 -1.21077,1.56712 -3.19427,2.50572 -5.17378,2.44822"
       inkscape:connector-curvature="0" />
    <path
       id="path2992-3"
       style="fill:#ffffff;fill-opacity:1;stroke:none"
       inkscape:path-effect="#path-effect2994-8"
       inkscape:original-d="m 129.25347,989.77567 0.59871,-10.48291 c 0,0 -8.10828,-2.71676 -11.85218,-2.93058 -3.7439,-0.21383 -9.73413,-0.55595 -10.16179,6.93184 -0.42765,7.4878 5.56259,7.82993 9.30649,8.04375 3.7439,0.21383 12.10877,-1.5621 12.10877,-1.5621 z m 5.19869,1.04814 0.68424,-11.98047 c 0,0 8.1083,2.71675 7.89448,6.46065 -0.21383,3.7439 -8.57872,5.51982 -8.57872,5.51982 z"
       d="m 129.25347,989.77567 0.59871,-10.48291 c -3.61803,-1.95753 -7.7388,-2.97643 -11.85218,-2.93058 -2.26163,0.0252 -4.57838,0.38792 -6.53418,1.52389 -0.9779,0.56799 -1.85221,1.32689 -2.49995,2.25389 -0.64774,0.927 -1.06318,2.02501 -1.12766,3.15406 -0.0645,1.12905 0.22323,2.26722 0.76121,3.26195 0.53799,0.99472 1.32021,1.84823 2.22709,2.52386 1.81375,1.35127 4.07413,1.9754 6.31819,2.25794 4.08141,0.51388 8.2914,-0.0292 12.10877,-1.5621 m 5.19869,1.04814 0.68424,-11.98047 c 1.91573,-0.50175 4.05965,-0.0339 5.5922,1.22029 1.53256,1.25421 2.4152,3.26324 2.30228,5.24036 -0.11292,1.97712 -1.21855,3.8726 -2.88394,4.94416 -1.66539,1.07157 -3.84863,1.29226 -5.69478,0.57566"
       inkscape:connector-curvature="0" />
    <path
       id="path2992-30"
       style="fill:#ffffff;fill-opacity:1;stroke:none"
       inkscape:path-effect="#path-effect2994-7"
       inkscape:original-d="m 173.88458,927.23031 -10.1359,-2.74106 c 0,0 -4.32567,7.37656 -5.30462,10.99652 -0.97895,3.61997 -2.54527,9.41192 4.69466,11.36982 7.23993,1.9579 8.80625,-3.83405 9.7852,-7.45401 0.97895,-3.61997 0.96066,-12.17127 0.96066,-12.17127 z m 2.09453,-4.87216 -11.5839,-3.13264 c 0,0 4.32567,-7.37656 7.94565,-6.3976 3.61996,0.97895 3.63825,9.53024 3.63825,9.53024 z"
       d="m 173.88458,927.23031 -10.1359,-2.74106 c -2.65953,3.1383 -4.50384,6.96158 -5.30462,10.99652 -0.44029,2.2185 -0.56162,4.56033 0.14801,6.7079 0.35481,1.07378 0.91775,2.08544 1.69179,2.90992 0.77403,0.82449 1.76319,1.45678 2.85486,1.752 1.09167,0.29522 2.26468,0.24765 3.34876,-0.0743 1.08408,-0.32199 2.08016,-0.91204 2.92781,-1.66064 1.69528,-1.4972 2.77078,-3.58099 3.50863,-5.71902 1.34199,-3.88859 1.67599,-8.1203 0.96066,-12.17127 m 2.09453,-4.87216 -11.5839,-3.13264 c -0.0972,-1.97796 0.80143,-3.97989 2.34392,-5.22186 1.54249,-1.24197 3.69006,-1.69272 5.60173,-1.17574 1.91167,0.51698 3.53934,1.98867 4.24564,3.83878 0.70629,1.8501 0.47343,4.03207 -0.60739,5.69146"
       inkscape:connector-curvature="0" />
    <path
       id="path2992-30-8"
       style="fill:#ffffff;fill-opacity:1;stroke:none"
       inkscape:path-effect="#path-effect2994-7-4"
       inkscape:original-d="m 180.2552,885.12482 -10.24686,2.29171 c 0,0 -0.39513,8.54218 0.42335,12.20177 0.81847,3.6596 2.12802,9.51494 9.44719,7.87801 7.31919,-1.63694 6.00963,-7.49229 5.19117,-11.15188 -0.81846,-3.65959 -4.81485,-11.21961 -4.81485,-11.21961 z m -0.41394,-5.28712 -11.71069,2.6191 c 0,0 0.39511,-8.54218 4.05472,-9.36065 3.65958,-0.81847 7.65597,6.74155 7.65597,6.74155 z"
       d="m 180.2552,885.12482 -10.24686,2.29171 c -0.89315,4.01551 -0.74596,8.25782 0.42335,12.20177 0.64291,2.16847 1.62553,4.29764 3.25318,5.86809 0.81383,0.78523 1.78295,1.41861 2.85178,1.78806 1.06883,0.36946 2.23861,0.46868 3.34223,0.22186 1.10362,-0.24682 2.11968,-0.83491 2.9293,-1.62448 0.80962,-0.78957 1.41659,-1.77544 1.81839,-2.83254 0.80358,-2.11421 0.78557,-4.45911 0.44348,-6.69486 -0.62218,-4.06631 -2.29621,-7.96715 -4.81485,-11.21961 m -0.41394,-5.28712 -11.71069,2.6191 c -1.00665,-1.70541 -1.14312,-3.89552 -0.35598,-5.71271 0.78715,-1.81718 2.4781,-3.21572 4.4107,-3.64794 1.9326,-0.43222 4.05821,0.11273 5.54447,1.42147 1.48625,1.30874 2.29575,3.34833 2.1115,5.32008"
       inkscape:connector-curvature="0" />
    <path
       id="path2992-30-9"
       style="fill:#ffffff;fill-opacity:1;stroke:none"
       inkscape:path-effect="#path-effect2994-7-47"
       inkscape:original-d="m 140.04255,861.7888 -2.8401,10.10861 c 0,0 7.33389,4.39762 10.94411,5.41194 3.61021,1.01432 9.38656,2.63723 11.41519,-4.5832 2.02864,-7.22044 -3.74771,-8.84334 -7.35792,-9.85766 -3.61021,-1.01432 -12.16128,-1.07969 -12.16128,-1.07969 z m -4.85145,-2.14209 -3.24581,11.5527 c 0,0 -7.33388,-4.39764 -6.31957,-8.00785 1.01433,-3.61022 9.56538,-3.54485 9.56538,-3.54485 z"
       d="m 140.04255,861.7888 -2.8401,10.10861 c 3.11214,2.6901 6.91719,4.57173 10.94411,5.41194 2.21409,0.46197 4.55461,0.6062 6.70902,-0.0824 1.0772,-0.3443 2.09431,-0.89731 2.92633,-1.66324 0.83201,-0.76593 1.47395,-1.74885 1.77984,-2.83758 0.30589,-1.08873 0.26979,-2.26215 -0.0416,-3.34933 -0.31137,-1.08717 -0.89164,-2.08898 -1.63192,-2.94391 -1.48054,-1.70985 -3.55371,-2.80568 -5.68442,-3.56442 -3.87527,-1.37996 -8.10351,-1.75535 -12.16128,-1.07969 m -4.85145,-2.14209 -3.24581,11.5527 c -1.97881,0.0778 -3.97186,-0.84032 -5.19868,-2.39488 -1.22682,-1.55457 -1.65654,-3.70645 -1.12089,-5.61297 0.53565,-1.90652 2.0232,-3.51972 3.88013,-4.20789 1.85693,-0.68816 4.03652,-0.43397 5.68525,0.66304"
       inkscape:connector-curvature="0" />
    <path
       id="path2992-30-7"
       style="fill:#ffffff;fill-opacity:1;stroke:none"
       inkscape:path-effect="#path-effect2994-7-9"
       inkscape:original-d="m 102.6893,880.15206 2.04015,10.29989 c 0,0 8.52995,0.60414 12.20848,-0.12449 3.67853,-0.72862 9.56419,-1.89442 8.10694,-9.25149 -1.45725,-7.35707 -7.3429,-6.19126 -11.02143,-5.46264 -3.67854,0.72863 -11.33414,4.53873 -11.33414,4.53873 z m -5.295673,0.28437 2.331608,11.7713 c 0,0 -8.529953,-0.60415 -9.258578,-4.28269 -0.728617,-3.67853 6.92697,-7.48861 6.92697,-7.48861 z"
       d="m 102.6893,880.15206 2.04015,10.29989 c 3.99244,0.9912 8.23709,0.94791 12.20848,-0.12449 2.18356,-0.58963 4.33615,-1.51983 5.94598,-3.10855 0.80492,-0.79436 1.46183,-1.74767 1.85735,-2.80714 0.39551,-1.05947 0.52334,-2.22647 0.30361,-3.3358 -0.21973,-1.10933 -0.78276,-2.13949 -1.55227,-2.96819 -0.76952,-0.82871 -1.74022,-1.45964 -2.78717,-1.88719 -2.0939,-0.8551 -4.43853,-0.89451 -6.68199,-0.60726 -4.08033,0.52244 -8.02099,2.10047 -11.33414,4.53873 m -5.295673,0.28437 2.331608,11.7713 c -1.729543,0.9646 -3.922347,1.04741 -5.719717,0.21601 -1.797369,-0.8314 -3.154085,-2.5561 -3.538861,-4.4987 -0.384774,-1.9426 0.212064,-4.05423 1.556797,-5.50799 1.344732,-1.45377 3.403528,-2.21309 5.370173,-1.98062"
       inkscape:connector-curvature="0" />
    <path
       id="path2992-30-7-5"
       style="fill:#ffffff;fill-opacity:1;stroke:none"
       inkscape:path-effect="#path-effect2994-7-9-5"
       inkscape:original-d="m 58.920736,891.70338 9.725407,3.95808 c 0,0 5.193938,-6.79323 6.607538,-10.26659 1.4136,-3.47336 3.675367,-9.03074 -3.271358,-11.85794 -6.946717,-2.82721 -9.208477,2.73017 -10.622077,6.20353 -1.4136,3.47336 -2.43951,11.96292 -2.43951,11.96292 z m -2.673713,4.57998 11.114753,4.52352 c 0,0 -5.193945,6.79323 -8.667315,5.37963 -3.473355,-1.4136 -2.447438,-9.90315 -2.447438,-9.90315 z"
       d="m 58.920736,891.70338 9.725407,3.95808 c 3.022795,-2.79011 5.320108,-6.3596 6.607538,-10.26659 0.707859,-2.14815 1.114202,-4.45764 0.672086,-6.67578 -0.221058,-1.10907 -0.656266,-2.18189 -1.323847,-3.09471 -0.667581,-0.91282 -1.572137,-1.66115 -2.619597,-2.08745 -1.047459,-0.4263 -2.217503,-0.5223 -3.332783,-0.33507 -1.115279,0.18722 -2.175953,0.65124 -3.108654,1.29075 -1.865401,1.27901 -3.187266,3.2159 -4.18064,5.24785 -1.80672,3.69565 -2.65489,7.85492 -2.43951,11.96292 m -2.673713,4.57998 11.114753,4.52352 c -0.145045,1.97503 -1.281347,3.85228 -2.963935,4.89662 -1.682587,1.04435 -3.869128,1.22953 -5.70338,0.48301 -1.834246,-0.74651 -3.270058,-2.40593 -3.745179,-4.32843 -0.475121,-1.9225 0.0224,-4.05971 1.297741,-5.57472"
       inkscape:connector-curvature="0" />
    <path
       id="path2992-30-8-3"
       style="fill:#ffffff;fill-opacity:1;stroke:none"
       inkscape:path-effect="#path-effect2994-7-4-0"
       inkscape:original-d="m 187.32417,956.41831 -10.3595,-1.71195 c 0,0 -3.56499,7.77277 -4.17639,11.47259 -0.61142,3.69982 -1.58966,9.61954 5.80997,10.84236 7.39965,1.22281 8.3779,-4.69691 8.98931,-8.39672 0.61141,-3.69983 -0.26339,-12.20628 -0.26339,-12.20628 z m 1.59594,-5.05748 -11.83943,-1.95649 c 0,0 3.56499,-7.77278 7.26482,-7.16136 3.69982,0.6114 4.57461,9.11785 4.57461,9.11785 z"
       d="m 187.32417,956.41831 -10.3595,-1.71195 c -2.33177,3.38893 -3.78382,7.37773 -4.17639,11.47259 -0.21584,2.25145 -0.10198,4.59365 0.8192,6.65933 0.4606,1.03284 1.12204,1.98302 1.97477,2.72582 0.85273,0.7428 1.90025,1.27283 3.016,1.45721 1.11575,0.18438 2.2781,0.0195 3.32447,-0.40942 1.04637,-0.42897 1.97834,-1.11583 2.74674,-1.94557 1.53678,-1.65949 2.39813,-3.84054 2.9181,-6.04173 0.94571,-4.00346 0.85413,-8.24734 -0.26339,-12.20628 m 1.59594,-5.05748 -11.83943,-1.95649 c -0.29483,-1.95827 0.39872,-4.04016 1.80904,-5.4304 1.41032,-1.39023 3.50194,-2.05384 5.45578,-1.73096 1.95384,0.32288 3.72075,1.62413 4.60882,3.39418 0.88807,1.77004 0.87495,3.96436 -0.0342,5.72367"
       inkscape:connector-curvature="0" />
    <path
       id="path2992-2-2"
       style="fill:#ffffff;fill-opacity:1;stroke:none"
       inkscape:path-effect="#path-effect2994-6-6"
       inkscape:original-d="m 97.187419,1004.2256 -0.235016,-10.49736 c 0,0 -8.29829,-2.0648 -12.047354,-1.98087 -3.749057,0.0839 -9.747558,0.21823 -9.579685,7.71631 0.167824,7.49832 6.166344,7.36392 9.915388,7.28002 3.74907,-0.084 11.946648,-2.518 11.946648,-2.518 z m 5.265471,0.6323 -0.26859,-11.99698 c 0,0 8.2983,2.06479 8.38222,5.81385 0.0839,3.74913 -8.11363,6.18313 -8.11363,6.18313 z"
       d="m 97.187419,1004.2256 -0.235016,-10.49736 c -3.761944,-1.66427 -7.950579,-2.35299 -12.047354,-1.98087 -2.25249,0.2046 -4.53314,0.75 -6.392627,2.03759 -0.929743,0.64379 -1.74108,1.46966 -2.313221,2.44514 -0.572141,0.97547 -0.899137,2.10298 -0.873837,3.23358 0.0253,1.13062 0.402413,2.24242 1.017626,3.19132 0.615213,0.9489 1.462694,1.7376 2.420318,2.3392 1.915248,1.2031 4.218037,1.6459 6.477444,1.7495 4.109325,0.1884 8.262949,-0.687 11.946648,-2.518 l 1.9e-5,-10e-5 m 5.265471,0.6323 -0.26859,-11.99698 c 1.86987,-0.65218 4.04415,-0.35594 5.67139,0.77271 1.62724,1.12864 2.66651,3.06129 2.71083,5.04114 0.0443,1.97983 -0.90742,3.95703 -2.48252,5.15743 -1.5751,1.2003 -3.73393,1.5935 -5.63111,1.0257"
       inkscape:connector-curvature="0" />
  </g>
</svg>
