<?xml version="1.0" encoding="UTF-8" standalone="no"?>
<!-- Created with Inkscape (http://www.inkscape.org/) -->

<svg
   xmlns:dc="http://purl.org/dc/elements/1.1/"
   xmlns:cc="http://creativecommons.org/ns#"
   xmlns:rdf="http://www.w3.org/1999/02/22-rdf-syntax-ns#"
   xmlns:svg="http://www.w3.org/2000/svg"
   xmlns="http://www.w3.org/2000/svg"
   xmlns:xlink="http://www.w3.org/1999/xlink"
   xmlns:sodipodi="http://sodipodi.sourceforge.net/DTD/sodipodi-0.dtd"
   xmlns:inkscape="http://www.inkscape.org/namespaces/inkscape"
   width="16"
   height="16"
   id="svg2"
   version="1.1"
   inkscape:version="0.48.0 r9654"
   sodipodi:docname="16pxDedicated.svg"
   inkscape:export-filename="Y:\Richard_Wheeler\Post-New Server\Exoplanet Discovery\OpenRCT\Concepts\Logo\16pxDedicated.png"
   inkscape:export-xdpi="90"
   inkscape:export-ydpi="90">
  <defs
     id="defs4">
    <inkscape:path-effect
       effect="spiro"
       id="path-effect3816"
       is_visible="true" />
    <inkscape:path-effect
       effect="spiro"
       id="path-effect3975"
       is_visible="true" />
    <inkscape:path-effect
       effect="spiro"
       id="path-effect3867"
       is_visible="true" />
    <inkscape:path-effect
       effect="spiro"
       id="path-effect3863"
       is_visible="true" />
    <inkscape:path-effect
       effect="spiro"
       id="path-effect3859"
       is_visible="true" />
    <inkscape:path-effect
       effect="spiro"
       id="path-effect3855"
       is_visible="true" />
    <inkscape:path-effect
       effect="spiro"
       id="path-effect3851"
       is_visible="true" />
    <linearGradient
       id="linearGradient3803">
      <stop
         style="stop-color:#ff6902;stop-opacity:1;"
         offset="0"
         id="stop3805" />
      <stop
         style="stop-color:#ffea02;stop-opacity:1;"
         offset="1"
         id="stop3807" />
    </linearGradient>
    <inkscape:path-effect
       effect="spiro"
       id="path-effect3784"
       is_visible="true" />
    <inkscape:path-effect
       effect="spiro"
       id="path-effect3780"
       is_visible="true" />
    <inkscape:path-effect
       effect="spiro"
       id="path-effect3776"
       is_visible="true" />
    <inkscape:path-effect
       effect="spiro"
       id="path-effect3772"
       is_visible="true" />
    <inkscape:path-effect
       effect="spiro"
       id="path-effect3000"
       is_visible="true" />
    <linearGradient
       inkscape:collect="always"
       xlink:href="#linearGradient3803"
       id="linearGradient3809"
       x1="11.5"
       y1="5.5"
       x2="11.5"
       y2="12.5"
       gradientUnits="userSpaceOnUse" />
    <linearGradient
       inkscape:collect="always"
       xlink:href="#linearGradient3803-1"
       id="linearGradient3809-3"
       x1="11.5"
       y1="5.5"
       x2="11.5"
       y2="12.5"
       gradientUnits="userSpaceOnUse" />
    <linearGradient
       id="linearGradient3803-1">
      <stop
         style="stop-color:#ff6902;stop-opacity:1;"
         offset="0"
         id="stop3805-6" />
      <stop
         style="stop-color:#ffea02;stop-opacity:1;"
         offset="1"
         id="stop3807-8" />
    </linearGradient>
    <inkscape:path-effect
       effect="spiro"
       id="path-effect3784-8"
       is_visible="true" />
    <linearGradient
       inkscape:collect="always"
       xlink:href="#linearGradient3803"
       id="linearGradient3876"
       x1="1"
       y1="7.75"
       x2="5.5"
       y2="7.75"
       gradientUnits="userSpaceOnUse" />
    <linearGradient
       inkscape:collect="always"
       xlink:href="#linearGradient3803"
       id="linearGradient3879"
       gradientUnits="userSpaceOnUse"
       x1="4.5"
       y1="5"
       x2="4.5"
       y2="11.5" />
    <linearGradient
       inkscape:collect="always"
       xlink:href="#linearGradient3803-13"
       id="linearGradient3879-2"
       gradientUnits="userSpaceOnUse"
       x1="4.5"
       y1="5"
       x2="4.5"
       y2="11" />
    <linearGradient
       id="linearGradient3803-13">
      <stop
         style="stop-color:#ff6902;stop-opacity:1;"
         offset="0"
         id="stop3805-2" />
      <stop
         style="stop-color:#ffea02;stop-opacity:1;"
         offset="1"
         id="stop3807-0" />
    </linearGradient>
    <inkscape:path-effect
       effect="spiro"
       id="path-effect3867-9"
       is_visible="true" />
    <linearGradient
       inkscape:collect="always"
       xlink:href="#linearGradient3803-9"
       id="linearGradient3879-9"
       gradientUnits="userSpaceOnUse"
       x1="4.5"
       y1="5"
       x2="4.5"
       y2="11.5" />
    <linearGradient
       id="linearGradient3803-9">
      <stop
         style="stop-color:#ff6902;stop-opacity:1;"
         offset="0"
         id="stop3805-7" />
      <stop
         style="stop-color:#ffea02;stop-opacity:1;"
         offset="1"
         id="stop3807-7" />
    </linearGradient>
    <inkscape:path-effect
       effect="spiro"
       id="path-effect3867-6"
       is_visible="true" />
    <inkscape:path-effect
       effect="spiro"
       id="path-effect3975-0"
       is_visible="true" />
    <inkscape:path-effect
       effect="spiro"
       id="path-effect3975-0-6"
       is_visible="true" />
    <inkscape:path-effect
       effect="spiro"
       id="path-effect3975-1"
       is_visible="true" />
    <inkscape:path-effect
       effect="spiro"
       id="path-effect3816-4"
       is_visible="true" />
    <inkscape:path-effect
       effect="spiro"
       id="path-effect3816-4-2"
       is_visible="true" />
    <inkscape:path-effect
       effect="spiro"
       id="path-effect3816-4-2-5"
       is_visible="true" />
    <inkscape:path-effect
       effect="spiro"
       id="path-effect3816-4-2-58"
       is_visible="true" />
    <inkscape:path-effect
       effect="spiro"
       id="path-effect3816-4-2-5-3"
       is_visible="true" />
    <inkscape:path-effect
       effect="spiro"
       id="path-effect3816-4-2-7"
       is_visible="true" />
    <inkscape:path-effect
       effect="spiro"
       id="path-effect3816-4-4"
       is_visible="true" />
    <inkscape:path-effect
       effect="spiro"
       id="path-effect3816-2"
       is_visible="true" />
    <inkscape:path-effect
       effect="spiro"
       id="path-effect3816-4-2-58-2"
       is_visible="true" />
  </defs>
  <sodipodi:namedview
     id="base"
     pagecolor="#ffffff"
     bordercolor="#666666"
     borderopacity="1.0"
     inkscape:pageopacity="0.0"
     inkscape:pageshadow="2"
     inkscape:zoom="44.8"
     inkscape:cx="5.4406964"
     inkscape:cy="6.9274164"
     inkscape:document-units="px"
     inkscape:current-layer="layer1"
     showgrid="true"
     inkscape:window-width="1680"
     inkscape:window-height="1028"
     inkscape:window-x="1672"
     inkscape:window-y="-8"
     inkscape:window-maximized="1">
    <inkscape:grid
       type="xygrid"
       id="grid2985"
       empspacing="2"
       visible="true"
       enabled="true"
       snapvisiblegridlinesonly="true"
       spacingx="0.5px"
       spacingy="0.5px" />
  </sodipodi:namedview>
  <metadata
     id="metadata7">
    <rdf:RDF>
      <cc:Work
         rdf:about="">
        <dc:format>image/svg+xml</dc:format>
        <dc:type
           rdf:resource="http://purl.org/dc/dcmitype/StillImage" />
        <dc:title />
      </cc:Work>
    </rdf:RDF>
  </metadata>
  <g
     inkscape:label="Layer 1"
     inkscape:groupmode="layer"
     id="layer1"
     transform="translate(0,-1036.3622)">
    <path
       inkscape:connector-curvature="0"
       inkscape:original-d="m 5.5,1044.8622 c 0,0 2,3 4,3 2,0 4.5,-2 4.5,-4 0,-2 0,-5 -5.5,-5 -5.5,0 -6,1.5 -6,5 0,3.5 2.5,6 6,6 3.5,0 7.5,-2.5 7.5,-2.5"
       inkscape:path-effect="#path-effect3975-1"
       id="path3973-7"
       d="m 5.5,1044.8622 c 0.288062,0.8365 0.8317775,1.5831 1.5395624,2.1139 0.7077849,0.5309 1.5767189,0.8438 2.4604376,0.8861 1.113843,0.053 2.246115,-0.3323 3.083649,-1.0685 0.837535,-0.7363 1.36691,-1.8175 1.416351,-2.9315 0.03065,-0.6905 -0.117916,-1.3861 -0.411439,-2.0119 -0.293522,-0.6258 -0.730265,-1.1818 -1.256967,-1.6294 -1.053403,-0.8953 -2.4492856,-1.3392 -3.831594,-1.3587 -1.4381211,-0.02 -2.8963579,0.4152 -4.023648,1.3084 -1.1272901,0.8933 -1.8971171,2.2555 -1.976352,3.6916 -0.042933,0.7781 0.1125022,1.5637 0.4271043,2.2767 0.3146022,0.713 0.7864053,1.3535 1.3581668,1.883 1.143523,1.0591 2.6669971,1.6564 4.2147289,1.8403 2.703211,0.3211 5.530105,-0.6212 7.5,-2.5"
       style="fill:none;stroke:#bc3313;stroke-width:0.5;stroke-linecap:round;stroke-linejoin:round;stroke-miterlimit:4;stroke-opacity:1;stroke-dasharray:none"
       sodipodi:nodetypes="csssssc" />
    <g
       id="g4019">
      <path
         inkscape:connector-curvature="0"
         inkscape:original-d="m 5.5,1044.8622 c 0,0 2,3 4,3 2,0 5.5,-2.5 5.5,-4.5 0,-2 -1,-5.5 -6.5,-5.5 -5.5,0 -7,2 -7,5.5 0,3.5 3.5,7.5 7,7.5 3.5,0 7.5,-2 7.5,-2"
         inkscape:path-effect="#path-effect3975-0"
         id="path3973-9"
         d="m 5.5,1044.8622 c 0.3532641,0.7956 0.9130527,1.4984 1.6094514,2.0207 0.6963986,0.5223 1.5278632,0.8629 2.3905486,0.9793 1.324195,0.1786 2.720367,-0.1901 3.761867,-1.0272 1.0415,-0.837 1.705462,-2.137 1.738133,-3.4728 0.01937,-0.7918 -0.175744,-1.5848 -0.538057,-2.2892 -0.362312,-0.7043 -0.889417,-1.3202 -1.514059,-1.8072 -1.249286,-0.974 -2.863792,-1.4139 -4.447884,-1.4036 -1.6197522,0.01 -3.2528346,0.4857 -4.5522724,1.4528 -1.2994378,0.967 -2.2404646,2.4407 -2.4477276,4.0472 -0.1217983,0.944 0.00712,1.9158 0.3440229,2.8061 0.3369034,0.8903 0.8791149,1.6988 1.5546531,2.3694 1.3510764,1.3412 3.2102808,2.105 5.101324,2.3245 2.631732,0.3055 5.369809,-0.4247 7.5,-2"
         style="fill:none;stroke:#e9ad9b;stroke-width:1px;stroke-linecap:round;stroke-linejoin:round;stroke-opacity:1"
         sodipodi:nodetypes="csssssc" />
      <path
         inkscape:connector-curvature="0"
         inkscape:original-d="m 5.5,1045.8622 c 0,0 2,3 4,3 2,0 5.5,-2.5 5.5,-4.5 0,-2 -1,-7.5 -6.5,-7.5 -5.5,0 -7,4 -7,7.5 0,3.5 3.5,7.5 7,7.5 3.5,0 7.5,-2 7.5,-2"
         inkscape:path-effect="#path-effect3975-0-6"
         id="path3973-9-3"
         d="m 5.5,1045.8622 c 0.3143521,0.8206 0.8644398,1.5494 1.5674678,2.0767 0.7030279,0.5273 1.5567017,0.8513 2.4325322,0.9233 1.293936,0.1064 2.614308,-0.347 3.607074,-1.1837 0.992766,-0.8366 1.657084,-2.0396 1.892926,-3.3163 0.342869,-1.8561 -0.233965,-3.8504 -1.481379,-5.2669 -1.247414,-1.4166 -3.131143,-2.2378 -5.018621,-2.2331 -1.9111185,0 -3.8010347,0.8472 -5.0993256,2.2497 -1.298291,1.4024 -1.9916937,3.3413 -1.9006744,5.2503 0.087992,1.8455 0.8956749,3.636 2.1728336,4.971 1.2771586,1.3351 3.0065058,2.2149 4.8271664,2.529 2.630548,0.4539 5.444733,-0.2966 7.5,-2"
         style="fill:none;stroke:#8d2f16;stroke-width:1px;stroke-linecap:round;stroke-linejoin:round;stroke-opacity:1"
         sodipodi:nodetypes="csssssc" />
      <path
         inkscape:connector-curvature="0"
         inkscape:original-d="m 5.5,1045.3622 c 0,0 2,3 4,3 2,0 5.5,-2.5 5.5,-4.5 0,-2 -1,-6.5 -6.5,-6.5 -5.5,0 -7,3 -7,6.5 0,3.5 3.5,7.5 7,7.5 3.5,0 7.5,-2 7.5,-2"
         inkscape:path-effect="#path-effect3975"
         id="path3973"
         d="m 5.5,1045.3622 c 0.3322066,0.8094 0.8867013,1.5262 1.5866251,2.0512 0.6999238,0.5249 1.5433516,0.8565 2.4133749,0.9488 1.307177,0.1387 2.661377,-0.277 3.675513,-1.1133 1.014136,-0.8363 1.678361,-2.0803 1.824487,-3.3867 0.192339,-1.7195 -0.520317,-3.4908 -1.771546,-4.6859 -1.251229,-1.195 -2.998237,-1.8209 -4.728454,-1.8141 -1.7598133,0.01 -3.5189413,0.6608 -4.8205138,1.8453 -1.3015725,1.1844 -2.1227469,2.8958 -2.1794862,4.6547 -0.060344,1.8707 0.7406144,3.7273 2.0504794,5.0641 1.309865,1.3369 3.0976569,2.1646 4.9495206,2.4359 2.631768,0.3856 5.409669,-0.3552 7.5,-2"
         style="fill:none;stroke:#bc3313;stroke-width:1px;stroke-linecap:round;stroke-linejoin:round;stroke-opacity:1"
         sodipodi:nodetypes="csssssc" />
    </g>
    <path
       style="fill:none;stroke:#7a2913;stroke-width:0.50000000000000000;stroke-linecap:round;stroke-linejoin:round;stroke-miterlimit:4;stroke-opacity:1;stroke-dasharray:none"
       d="m 12.18115,1049.7541 0.408258,1.0408"
       id="path3814-0-1"
       inkscape:path-effect="#path-effect3816-4-2"
       inkscape:original-d="m 12.18115,1049.7541 0.408258,1.0408"
       inkscape:connector-curvature="0" />
    <path
       id="path3865-6"
       style="fill:#222d5d;stroke:#222d5d;stroke-width:3;stroke-linecap:round;stroke-linejoin:round;stroke-opacity:1;stroke-miterlimit:4;stroke-dasharray:none;fill-opacity:1"
       inkscape:path-effect="#path-effect3867-6"
       inkscape:original-d="m 4.5,1044.8622 0.5,0 -0.5,-0.5 -0.5,1 0.5,1.5 m -1,-1.5 0.5,-0.5 -0.5,0 -0.5,1 0.5,1 m -1,-1 0,0.5 0,-2.5 1,0.5 m -2,-1.5 1.5,0.5 m -1.5,2 0,-4.5 1.5,0.5"
       d="m 4.5,1044.8622 0.5,0 -0.5,-0.5 -0.5,1 0.5,1.5 m -1,-1.5 0.5,-0.5 -0.5,0 -0.5,1 0.5,1 m -1,-1 0,0.5 0,-2.5 1,0.5 m -2,-1.5 1.5,0.5 m -1.5,2 0,-4.5 1.5,0.5"
       inkscape:connector-curvature="0"
       sodipodi:nodetypes="ccccccccccccccccccc" />
    <path
       style="fill:none;stroke:#7a2913;stroke-width:0.50000000000000000;stroke-linecap:round;stroke-linejoin:round;stroke-miterlimit:4;stroke-opacity:1;stroke-dasharray:none"
       d="m 14.882807,1048.4252 0.642644,0.9148"
       id="path3814-0-1-7"
       inkscape:path-effect="#path-effect3816-4-2-5"
       inkscape:original-d="m 14.882807,1048.4252 0.642644,0.9148"
       inkscape:connector-curvature="0" />
    <path
       inkscape:connector-curvature="0"
       id="path3782-2"
       style="fill:#222d5d;stroke:#222d5d;stroke-width:3;stroke-linecap:round;stroke-linejoin:round;stroke-miterlimit:4;stroke-opacity:1;stroke-dasharray:none;fill-opacity:1"
       inkscape:path-effect="#path-effect3784-8"
       inkscape:original-d="m 12.5,1043.8622 c 0,0 0.5,0.5 1,0.5 0.5,0 1,0.2632 1,0.2632 m -2.5,-1.2632 c 0,0 -0.5,-0.5 -1,-0.5 -0.5,0 -1.0000004,0.5 -1.0000004,2.5 0,2 0,2.5 0.5000004,2.5 0.5,0 1.5,0.5 1.5,0.5 m -5.5,-1.5 0,-5 c 0,0 2,0 2,1.5 0,1.5 -2,1.5 -2,1.5 1.6621632,0.5541 0,0 0,0 0,0 1.1352422,0.5224 1.5,1 0.3199137,0.4189 0.5,1 0.5,1 m 5,-2.5 0,4.5"
       d="m 12.5,1043.8622 c 0.314192,0.2018 0.650081,0.3697 1,0.5 0.323547,0.1205 0.659064,0.2088 1,0.2632 m -2.5,-1.2632 c -0.08925,-0.1789 -0.237773,-0.3275 -0.416555,-0.4169 -0.178782,-0.089 -0.386814,-0.119 -0.583445,-0.083 -0.242122,0.044 -0.460904,0.1856 -0.620767,0.3728 -0.159863,0.1871 -0.263483,0.4178 -0.322968,0.6566 -0.1189698,0.4777 -0.066375,0.9784 -0.056265,1.4706 0.00893,0.4346 -0.015853,0.8711 0.034176,1.3028 0.05003,0.4318 0.182254,0.8678 0.465824,1.1972 0.180512,0.2097 0.418542,0.3694 0.681037,0.4569 0.262495,0.088 0.548732,0.1026 0.818963,0.043 m -5.5,-1.5 0,-5 c 0.4636476,-0.1352 0.988627,-0.04 1.375,0.25 0.386373,0.2898 0.625,0.767 0.625,1.25 0,0.483 -0.238627,0.9602 -0.625,1.25 -0.386373,0.2898 -0.9113524,0.3852 -1.375,0.25 l 0,0 c 0.589876,0.1609 1.1246244,0.5174 1.5,1 0.2302948,0.2961 0.4013022,0.6381 0.5,1 m 5,-2.5 0,4.5"
       sodipodi:nodetypes="csccssscccscccccc" />
    <path
       id="path3865"
       transform="translate(0,1036.3622)"
       style="fill:none;stroke:url(#linearGradient3879);stroke-width:1px;stroke-linecap:round;stroke-linejoin:round;stroke-opacity:1"
       inkscape:path-effect="#path-effect3867"
       inkscape:original-d="M 4.5,8.5 5,8.5 4.5,8 4,9 4.5,10.5 M 3.5,9 4,8.5 l -0.5,0 -0.5,1 0.5,1 m -1,-1 0,0.5 0,-2.5 1,0.5 M 1.5,6.5 3,7 M 1.5,9 1.5,4.5 3,5"
       d="M 4.5,8.5 5,8.5 4.5,8 4,9 4.5,10.5 M 3.5,9 4,8.5 l -0.5,0 -0.5,1 0.5,1 m -1,-1 0,0.5 0,-2.5 1,0.5 M 1.5,6.5 3,7 M 1.5,9 1.5,4.5 3,5"
       inkscape:connector-curvature="0"
       sodipodi:nodetypes="ccccccccccccccccccc" />
    <path
       id="path3782"
       transform="translate(0,1036.3622)"
       style="fill:none;stroke:url(#linearGradient3809);stroke-width:1px;stroke-linecap:round;stroke-linejoin:round;stroke-opacity:1"
       inkscape:path-effect="#path-effect3784"
       inkscape:original-d="m 12.5,7.5 c 0,0 0.5,0.5 1,0.5 0.5,0 1,0.2632455 1,0.2632455 M 12,7 C 12,7 11.5,6.5 11,6.5 10.5,6.5 10,7 10,9 c 0,2 0,2.5 0.5,2.5 0.5,0 1.5,0.5 1.5,0.5 m -5.5,-1.5 0,-5 c 0,0 2,0 2,1.5 0,1.5 -2,1.5 -2,1.5 1.6621632,0.5540544 0,0 0,0 0,0 1.1352422,0.5224407 1.5,1 0.3199137,0.4188472 0.5,1 0.5,1 m 5,-2.5 0,4.5"
       d="m 12.5,7.5 c 0.314197,0.2017478 0.650084,0.3696913 1,0.5 0.323547,0.1204889 0.659064,0.2088121 1,0.2632455 M 12,7 C 11.910753,6.8211458 11.762228,6.6725004 11.583445,6.5831093 11.404663,6.4937182 11.196631,6.464085 11,6.5 10.757878,6.5442239 10.539096,6.6856073 10.379233,6.8727504 10.21937,7.0598936 10.115751,7.2905783 10.056266,7.5294094 9.9372956,8.0070715 9.9898908,8.5078488 10,9 c 0.0089,0.434574 -0.015853,0.8710567 0.03418,1.302834 C 10.084206,10.73461 10.21643,11.170573 10.5,11.5 c 0.180512,0.209703 0.418542,0.369391 0.681037,0.456889 C 11.443532,12.044388 11.729769,12.059455 12,12 m -5.5,-1.5 0,-5 C 6.9636476,5.3647694 7.488627,5.4602202 7.875,5.75 8.261373,6.0397798 8.5,6.5170337 8.5,7 8.5,7.4829663 8.261373,7.9602202 7.875,8.25 7.488627,8.5397798 6.9636476,8.6352306 6.5,8.5 l 0,0 c 0.589876,0.1608753 1.1246244,0.5173742 1.5,1 0.2302948,0.2960933 0.4013022,0.638108 0.5,1 m 5,-2.5 0,4.5"
       inkscape:connector-curvature="0"
       sodipodi:nodetypes="csccssscccsccsccc" />
    <path
       style="fill:none;stroke:#7a2913;stroke-width:0.50000000000000000;stroke-linecap:round;stroke-linejoin:round;stroke-opacity:1;stroke-miterlimit:4;stroke-dasharray:none"
       d="M 7.5,13.5 7,14.5"
       id="path3814"
       inkscape:path-effect="#path-effect3816"
       inkscape:original-d="M 7.5,13.5 7,14.5"
       inkscape:connector-curvature="0"
       transform="translate(0,1036.3622)" />
    <path
       style="fill:none;stroke:#7a2913;stroke-width:0.50000000000000000;stroke-linecap:round;stroke-linejoin:round;stroke-miterlimit:4;stroke-opacity:1;stroke-dasharray:none"
       d="M 9.886682,1050.25 10,1051.3622"
       id="path3814-0"
       inkscape:path-effect="#path-effect3816-4"
       inkscape:original-d="M 9.886682,1050.25 10,1051.3622"
       inkscape:connector-curvature="0" />
    <path
       style="fill:none;stroke:#7a2913;stroke-width:0.50000000000000000;stroke-linecap:round;stroke-linejoin:round;stroke-miterlimit:4;stroke-opacity:1;stroke-dasharray:none"
       d="m 5.176288,1048.7298 -0.7207982,0.8546"
       id="path3814-0-1-1"
       inkscape:path-effect="#path-effect3816-4-2-58"
       inkscape:original-d="m 5.176288,1048.7298 -0.7207982,0.8546"
       inkscape:connector-curvature="0" />
    <path
       style="fill:none;stroke:#7a2913;stroke-width:0.50000000000000000;stroke-linecap:round;stroke-linejoin:round;stroke-miterlimit:4;stroke-opacity:1;stroke-dasharray:none"
       d="M 5.908258,1039.2134 5.5,1038.1726"
       id="path3814-0-1-5"
       inkscape:path-effect="#path-effect3816-4-2-7"
       inkscape:original-d="M 5.908258,1039.2134 5.5,1038.1726"
       inkscape:connector-curvature="0" />
    <path
       style="fill:none;stroke:#7a2913;stroke-width:0.50000000000000000;stroke-linecap:round;stroke-linejoin:round;stroke-miterlimit:4;stroke-opacity:1;stroke-dasharray:none"
       d="m 11.44902,1039.3333 0.60196,-0.9422"
       id="path3814-4"
       inkscape:path-effect="#path-effect3816-2"
       inkscape:original-d="m 11.44902,1039.3333 0.60196,-0.9422"
       inkscape:connector-curvature="0" />
    <path
       style="fill:none;stroke:#7a2913;stroke-width:0.50000000000000000;stroke-linecap:round;stroke-linejoin:round;stroke-miterlimit:4;stroke-opacity:1;stroke-dasharray:none"
       d="m 8.9172108,1038.7618 0.063608,-1.1162"
       id="path3814-0-15"
       inkscape:path-effect="#path-effect3816-4-4"
       inkscape:original-d="m 8.9172108,1038.7618 0.063608,-1.1162"
       inkscape:connector-curvature="0" />
    <path
       style="fill:none;stroke:#7a2913;stroke-width:0.50000000000000000;stroke-linecap:round;stroke-linejoin:round;stroke-miterlimit:4;stroke-opacity:1;stroke-dasharray:none"
       d="m 13.45705,1041.2902 0.996442,-0.507"
       id="path3814-0-1-1-3"
       inkscape:path-effect="#path-effect3816-4-2-58-2"
       inkscape:original-d="m 13.45705,1041.2902 0.996442,-0.507"
       inkscape:connector-curvature="0" />
  </g>
</svg>
