<?xml version="1.0" encoding="UTF-8" standalone="no"?>
<!-- Created with Inkscape (http://www.inkscape.org/) -->

<svg
   xmlns:dc="http://purl.org/dc/elements/1.1/"
   xmlns:cc="http://creativecommons.org/ns#"
   xmlns:rdf="http://www.w3.org/1999/02/22-rdf-syntax-ns#"
   xmlns:svg="http://www.w3.org/2000/svg"
   xmlns="http://www.w3.org/2000/svg"
   xmlns:sodipodi="http://sodipodi.sourceforge.net/DTD/sodipodi-0.dtd"
   xmlns:inkscape="http://www.inkscape.org/namespaces/inkscape"
   width="240"
   height="240"
   id="svg2"
   version="1.1"
   inkscape:version="0.48.0 r9654"
   sodipodi:docname="dashedborder.svg"
   inkscape:export-filename="Y:\Richard_Wheeler\Post-New Server\Exoplanet Discovery\FreeRCT\sprites\terrain\groundtiles\textures\dashedborder.png"
   inkscape:export-xdpi="300"
   inkscape:export-ydpi="300">
  <defs
     id="defs4">
    <inkscape:path-effect
       effect="spiro"
       id="path-effect2986"
       is_visible="true" />
  </defs>
  <sodipodi:namedview
     id="base"
     pagecolor="#ffffff"
     bordercolor="#666666"
     borderopacity="1.0"
     inkscape:pageopacity="0.0"
     inkscape:pageshadow="2"
     inkscape:zoom="1.979899"
     inkscape:cx="37.725734"
     inkscape:cy="75.033345"
     inkscape:document-units="px"
     inkscape:current-layer="layer1"
     showgrid="true"
     inkscape:window-width="1596"
     inkscape:window-height="1028"
     inkscape:window-x="76"
     inkscape:window-y="-8"
     inkscape:window-maximized="1">
    <inkscape:grid
       type="xygrid"
       id="grid2985"
       empspacing="5"
       visible="true"
       enabled="true"
       snapvisiblegridlinesonly="true"
       spacingx="10px"
       spacingy="10px"
       dotted="false" />
  </sodipodi:namedview>
  <metadata
     id="metadata7">
    <rdf:RDF>
      <cc:Work
         rdf:about="">
        <dc:format>image/svg+xml</dc:format>
        <dc:type
           rdf:resource="http://purl.org/dc/dcmitype/StillImage" />
        <dc:title></dc:title>
      </cc:Work>
    </rdf:RDF>
  </metadata>
  <g
     inkscape:label="Layer 1"
     inkscape:groupmode="layer"
     id="layer1"
     transform="translate(0,-812.36218)">
    <path
       id="rect2994-1-1"
       style="fill:#ffffff;fill-opacity:1;fill-rule:evenodd;stroke:none"
       d="m 110,812.36218 0,40 -40,0 0,-40 z m 60.00002,0 0,40 -40.00002,0 0,-40 z m 20,0 0,40 10,0 0,10 40,0 0,-50 z m 50,110.00002 -40,0 0,-40.00002 40,0 z m 0,60 -40,0 0,-40 40,0 z m 0,20 -40,0 0,10 -10,0 0,40 50,0 z m -110,50 0,-40 40,0 0,40 z m -60.00002,0 0,-40 40.00002,0 0,40 z m -20,0 0,-40 -10,0 0,-10 -40,0 0,50 z M 0,942.36218 l 40,0 0,40 -40,0 z m 0,-60 40,0 0,40 -40,0 z m 0,-20 40,0 0,-10 10,0 0,-40 -50,0 z" />
  </g>
</svg>
